<?xml version="1.0" encoding="UTF-8" standalone="no"?>
<!-- Generator: Adobe Illustrator 18.1.1, SVG Export Plug-In . SVG Version: 6.00 Build 0)  -->

<svg
   xmlns:dc="http://purl.org/dc/elements/1.1/"
   xmlns:cc="http://creativecommons.org/ns#"
   xmlns:rdf="http://www.w3.org/1999/02/22-rdf-syntax-ns#"
   xmlns:svg="http://www.w3.org/2000/svg"
   xmlns="http://www.w3.org/2000/svg"
   xmlns:sodipodi="http://sodipodi.sourceforge.net/DTD/sodipodi-0.dtd"
   xmlns:inkscape="http://www.inkscape.org/namespaces/inkscape"
   version="1.1"
   id="Layer_1"
   x="0px"
   y="0px"
   viewBox="0 0 54.1 100"
   enable-background="new 0 0 54.1 100"
   xml:space="preserve"
   inkscape:version="0.91 r13725"
   sodipodi:docname="grand-central-alt.svg"><metadata
     id="metadata5584"><rdf:RDF><cc:Work
         rdf:about=""><dc:format>image/svg+xml</dc:format><dc:type
           rdf:resource="http://purl.org/dc/dcmitype/StillImage" /></cc:Work></rdf:RDF></metadata><defs
     id="defs5582" /><sodipodi:namedview
     pagecolor="#ffffff"
     bordercolor="#666666"
     borderopacity="1"
     objecttolerance="10"
     gridtolerance="10"
     guidetolerance="10"
     inkscape:pageopacity="0"
     inkscape:pageshadow="2"
     inkscape:window-width="1920"
     inkscape:window-height="1018"
     id="namedview5580"
     showgrid="false"
     showguides="false"
     inkscape:zoom="13.350176"
     inkscape:cx="55.64456"
     inkscape:cy="60.488727"
     inkscape:window-x="1912"
     inkscape:window-y="-8"
     inkscape:window-maximized="1"
     inkscape:current-layer="g5574" /><g
     id="g5574"
     style="fill:#1a1a1a"><ellipse
       style="opacity:1;fill:#ffffff;fill-opacity:1;stroke:none;stroke-width:16;stroke-opacity:1"
       id="path33710"
       cx="27.265558"
       cy="43.221722"
       rx="23.445383"
       ry="21.422937" /><path
       d="M 45.2,97.5 C 24.528658,93.24151 40.520834,67.737104 38.8,67.7 c 0,0 15.3,-8 15.3,-25.3 C 54.1,25.1 37.568482,17.800184 35.2,17 27.859787,14.520133 34.88316,0.11477066 27.022479,0.1 18.410274,0.12763991 26.649084,16.272615 19.1,17 16.410604,17.259134 0,25 0,42.3 0,59.6 15.3,67.6 15.3,67.6 14.237912,66.578725 28.640899,95.440834 8.9,97.5 6.4,97.5 8,100 8,100 l 18.6,0 0.7,0 18.7,0 c 0,0 1.6,-2.5 -0.8,-2.5 z M 8.1,42.8 c 0,-10.6 8.6,-19.3 19.3,-19.3 10.7,0 19.3,8.6 19.3,19.3 C 46.7,53.5 38,62 27.4,62 16.8,62 8.1,53.4 8.1,42.8 Z"
       id="path5576"
       style="fill:#1a1a1a"
       inkscape:connector-curvature="0"
       sodipodi:nodetypes="ccsscsscccccccsssss" /><path
       d="M43.4,39.2c0.1-0.3-4.1-0.5-4.6,0.2c0,0-1.1,0.5-1.1,0.1s-0.9-0.5-0.9,0.1c0,0-6.6,0-7.4,0.7c-0.8,0.8-0.7-0.8-0.4-1   s1.2-1,0.8-1.3s0.5-0.6,0.5-0.6s0.3-1,0.1-1.3c-0.2-0.3-1.3,0.2-1.4,0.6c-0.1,0.4-0.1,1-0.5,0.9c-0.4-0.1-0.5,0.9-0.5,1.3   c0,0.4-2.2,0.6-2.9,2c0,0-0.9,0.4-1.3,0.4c-0.4,0-0.6-0.7-1,0S21,41.7,21,42.3s1.2,0.7,1.5,0.7c0.3,0,0.7,0,0.8,0.3   c0.1,0.3,0.8-0.1,0.8-0.5c0-0.4,1-0.4,1-0.1s0.1,0.6-0.4,1.1s-2.3,5.2-2.3,5.2s-1.1,0.4-0.8,1.2c0,0-0.9,1.7-0.9,2   c0,0.4,1.5-1.2,1.5-1.2s0.9-0.9,0.9-1.5s3.4-4.5,3.4-4.5s0.1-1.9,0.8-1.9c0.7,0.1,1.6-0.5,1.7-0.7c0.1-0.3,0.7-0.3,1.2-0.1   s6-1.4,6.6-1.6c0.6-0.2,0.7,0.4,1.2-0.1s0.8,0,0.8,0S43.3,39.5,43.4,39.2z"
       id="path5578"
       style="fill:#1a1a1a" /></g></svg>