<?xml version="1.0" encoding="UTF-8" standalone="no"?>
<!-- Created with Inkscape (http://www.inkscape.org/) -->

<svg
   xmlns:dc="http://purl.org/dc/elements/1.1/"
   xmlns:cc="http://creativecommons.org/ns#"
   xmlns:rdf="http://www.w3.org/1999/02/22-rdf-syntax-ns#"
   xmlns:svg="http://www.w3.org/2000/svg"
   xmlns="http://www.w3.org/2000/svg"
   xmlns:xlink="http://www.w3.org/1999/xlink"
   xmlns:sodipodi="http://sodipodi.sourceforge.net/DTD/sodipodi-0.dtd"
   xmlns:inkscape="http://www.inkscape.org/namespaces/inkscape"
   width="98.736549mm"
   height="53.08252mm"
   viewBox="0 0 349.85391 188.08767"
   id="svg5964"
   version="1.1"
   inkscape:version="0.91 r13725"
   sodipodi:docname="holland-tunnel.svg">
  <defs
     id="defs5966" />
  <sodipodi:namedview
     id="base"
     pagecolor="#ffffff"
     bordercolor="#666666"
     borderopacity="1.0"
     inkscape:pageopacity="0.0"
     inkscape:pageshadow="2"
     inkscape:zoom="1.979899"
     inkscape:cx="70.41246"
     inkscape:cy="139.17254"
     inkscape:document-units="px"
     inkscape:current-layer="layer1"
     showgrid="false"
     fit-margin-top="0"
     fit-margin-left="0"
     fit-margin-right="0"
     fit-margin-bottom="0"
     inkscape:window-width="1920"
     inkscape:window-height="1018"
     inkscape:window-x="1912"
     inkscape:window-y="-8"
     inkscape:window-maximized="1" />
  <metadata
     id="metadata5969">
    <rdf:RDF>
      <cc:Work
         rdf:about="">
        <dc:format>image/svg+xml</dc:format>
        <dc:type
           rdf:resource="http://purl.org/dc/dcmitype/StillImage" />
        <dc:title></dc:title>
      </cc:Work>
    </rdf:RDF>
  </metadata>
  <g
     inkscape:label="Layer 1"
     inkscape:groupmode="layer"
     id="layer1"
     transform="translate(95.829161,217.11364)">
    <path
       sodipodi:nodetypes="ssccsssscccccc"
       inkscape:connector-curvature="0"
       d="m -61.452961,-151.10211 c 9.137975,-9.04267 -9.137976,9.04268 0,0 z m -34.3762,118.45907 0,-75.35564 c 0,0 7.832549,-43.40485 44.384451,-69.32718 36.551903,-25.92235 75.714658,-39.78778 130.542513,-39.78778 54.827857,0 98.342017,15.67397 129.672217,42.19915 31.33019,26.52519 41.7736,47.62477 42.64389,67.51866 0.87027,19.893885 2.61084,78.369861 2.61084,78.369861 l -69.62266,0 -8.03869,-20.781537 -196.477902,0 -6.963686,17.152225 z"
       style="fill:#ececec;fill-opacity:1;fill-rule:evenodd;stroke:none;stroke-width:0.91881609px;stroke-linecap:butt;stroke-linejoin:miter;stroke-opacity:1"
       id="path6180" />
    <path
       id="path5998"
       style="fill:#1a1a1a;fill-opacity:1;fill-rule:evenodd;stroke:none;stroke-width:0.91881609px;stroke-linecap:butt;stroke-linejoin:miter;stroke-opacity:1"
       d="m -77.372965,-59.037097 c 0,0 0.868779,-39.12052 1.739055,-44.847553 0.870289,-5.72702 12.619118,-38.17478 21.757094,-47.21746 9.137975,-9.04267 39.66782,-34.33781 75.784583,-42.1748 36.116764,-7.83699 31.431201,-7.42968 63.631685,-7.7311 32.200498,-0.30142 62.901258,10.85933 83.788078,21.40912 20.8868,10.54979 51.74299,29.80024 58.70526,61.14819 6.96226,31.347946 6.41059,59.282475 6.41059,59.282475 z m -18.456196,26.394057 0,-75.35564 c 0,0 7.832549,-43.40485 44.384451,-69.32718 36.551903,-25.92235 75.714658,-39.78778 130.542513,-39.78778 54.827857,0 98.342017,15.67397 129.672217,42.19915 31.33019,26.52519 41.7736,47.62477 42.64389,67.51866 0.87027,19.893885 2.61084,74.441289 2.61084,74.441289 l -69.62266,0 -8.03869,-16.852965 -196.477902,0 -6.963686,17.152225 z"
       inkscape:connector-curvature="0"
       sodipodi:nodetypes="cssssssccccsssscccccc" />
    <g
       id="g6100"
       transform="matrix(1.4168356,0,0,1.5014071,944.96013,-795.19719)">
      <g
         transform="translate(-114.5398,-136.1648)"
         style="display:none"
         id="layer1-2"
         inkscape:label="Vrstva 1">
        <noimage
           sodipodi:absref="C:\Users\Alex\Desktop\mysite\static\post_assets\second-avenue-subway\300c-7.jpg"
           xlink:href="300c-7.jpg"
           width="1054.7131"
           height="745.66321"
           id="image1962"
           x="0.35023463"
           y="-1.4823861" />
      </g>
      <g
         transform="translate(-114.5398,-136.1648)"
         style="display:inline"
         inkscape:label="300c"
         id="layer2">
        <g
           inkscape:export-ydpi="90"
           inkscape:export-xdpi="90"
           inkscape:export-filename="/media/KINGSTON/inkscape/9.c/barta/auto.png"
           id="g17642">
          <path
             style="display:inline;fill:#000000;fill-rule:evenodd;stroke:#000000;stroke-width:0.09908108px;stroke-linecap:butt;stroke-linejoin:miter;stroke-opacity:1"
             d="m -408.75075,604.7722 0.25546,8.9876 -0.38319,7.04029 c 0,0 -0.25546,6.44111 -3.83188,6.44111 -3.57643,0 -7.15285,1.49794 -7.02512,-5.09297 0.12773,-6.59091 10.60154,-17.22623 10.98473,-17.37603 z"
             id="path17495"
             inkscape:connector-curvature="0" />
          <path
             style="fill:#000000;fill-rule:evenodd;stroke:#000000;stroke-width:0.09908108px;stroke-linecap:butt;stroke-linejoin:miter;stroke-opacity:1"
             d="m -481.10252,604.69555 -0.25546,8.9876 0.38319,7.04028 c 0,0 0.25546,6.44112 3.83189,6.44112 3.57642,0 7.15284,1.49793 7.0251,-5.09298 -0.12772,-6.5909 -10.60153,-17.22623 -10.98472,-17.37602 z"
             id="path17493"
             inkscape:connector-curvature="0" />
          <path
             style="fill:#666666;fill-opacity:1;fill-rule:evenodd;stroke:none;stroke-width:0.08404177px;stroke-linecap:butt;stroke-linejoin:miter;stroke-opacity:1"
             d="m -441.31973,622.89473 -22.74596,0.31505 -8.68644,-0.6301 c 0,0 -4.65666,0.6301 -6.62679,-2.83556 -1.97011,-3.46565 -2.50742,-15.96304 -2.50742,-15.96304 0,0 -1.34327,-8.5066 4.56711,-13.33754 5.91036,-4.83091 4.92529,-3.57068 4.92529,-3.57068 l 3.1343,-6.93132 c 0,0 3.17906,-6.98383 6.53722,-7.66645 5.08101,-1.03283 9.58196,-1.05021 9.58196,-1.05021 0,0 17.80028,-1.78454 27.44756,0.86053 1.75733,0.48181 5.95497,8.06618 5.95497,8.06618 l 2.86564,6.19618 c 2.17813,1.04425 3.24703,1.72601 5.2056,3.63115 0,0 3.51688,2.31044 3.48085,10.54654 -0.0378,8.62752 -1.16417,19.00863 -3.22384,20.26886 -2.05967,1.26024 -2.4633,0.99171 -3.918,1.15066 -1.79743,0.19642 -5.32379,0.40647 -10.49932,0.6747 -5.17554,0.26824 -12.00023,0.38007 -13.07484,0.38007 -2.14923,0 -2.41789,-0.21004 -2.41789,-0.10508 z"
             id="path13795"
             sodipodi:nodetypes="cccscsccscscccsssssc"
             inkscape:connector-curvature="0" />
          <path
             style="display:inline;fill:#000000;fill-opacity:1;stroke:#d0d0d0;stroke-width:0;stroke-miterlimit:4;stroke-opacity:1"
             d="m -444.03422,593.83849 c -0.25333,-3.3e-4 -0.4923,0.003 -0.71478,0.007 -0.11127,0.003 -0.22281,0.004 -0.33453,0.01 -0.004,-3e-5 -0.01,10e-6 -0.0143,0 -0.0266,-1.3e-4 -0.0534,0 -0.0801,0 -3.5606,0 -11.30865,0.74775 -15.12502,1.68324 -1.10405,0.27062 -0.66438,6.89573 -0.0743,9.08343 0.4601,1.70591 0.49886,5.7405 3.5711,7.05485 1.92386,0.82306 7.53682,0.9623 11.19366,0.97909 0.009,5e-5 0.017,-4e-5 0.0257,0 0.16825,0.004 0.3356,0.003 0.50322,0 0.11741,2.3e-4 0.25405,0.004 0.36597,0.004 0.35665,0 0.71611,-0.0125 1.07505,-0.037 3.65508,-0.10355 8.95552,-0.37335 10.79908,-1.20709 3.05126,-1.37995 3.02614,-5.4165 3.4596,-7.13197 0.55588,-2.19998 0.89365,-8.83315 -0.21443,-9.08009 -3.59091,-0.80025 -10.63608,-1.36063 -14.43596,-1.3647 z"
             id="path10937"
             inkscape:connector-curvature="0" />
          <g
             id="g13862"
             transform="matrix(0.10613204,0,0,0.10613204,-612.09333,553.20609)">
            <path
               sodipodi:nodetypes="ccssssccccc"
               id="path8230"
               d="m 1399.8302,394.49892 -85.0437,1.08337 c -1.7389,-0.31741 -3.5232,-0.47617 -5.3333,-0.47617 -19.9549,0 -36.1447,19.98963 -36.1447,44.6147 0,24.62504 16.1898,43.25521 36.1447,43.25521 9.9775,0 19.2506,-3.33568 26.5216,-9.22644 0.5995,-0.48566 1.1788,-1.0186 1.7102,-1.61169 l 0.3478,0.76921 73.2167,0 -1.3333,-11.42839 -10.086,-66.9798 z"
               style="display:inline;fill:#000000;fill-opacity:1;stroke:#000000;stroke-width:1.04268813;stroke-miterlimit:4;stroke-opacity:1"
               inkscape:connector-curvature="0" />
            <g
               id="g10910">
              <rect
                 style="opacity:1;fill:#1a1a1a;fill-opacity:1;stroke:none;stroke-width:1;stroke-opacity:1"
                 id="rect6176"
                 width="220.92766"
                 height="337.56827"
                 x="-17.295891"
                 y="414.08475" />
              <rect
                 y="414.08475"
                 x="1983.3268"
                 height="337.56827"
                 width="220.92766"
                 id="rect6178"
                 style="opacity:1;fill:#1a1a1a;fill-opacity:1;stroke:none;stroke-width:1;stroke-opacity:1" />
            </g>
          </g>
          <g
             style="display:inline"
             id="g13927"
             transform="matrix(-0.09149346,0,0,0.10729798,-397.3565,555.81536)">
            <path
               sodipodi:nodetypes="ccssssccccc"
               id="path13929"
               d="m 317.14183,364.43109 -98.65023,1.07161 c -2.01713,-0.31397 -4.08694,-0.471 -6.1866,-0.471 -23.14761,0 -41.92771,19.77241 -41.92771,44.1299 0,24.35746 18.7801,42.78518 41.92771,42.78517 11.57381,0 22.33053,-3.29942 30.76492,-9.12618 0.69537,-0.48037 1.36736,-1.00752 1.98375,-1.59418 l 0.40348,0.76086 84.9311,0 -1.54666,-11.30421 -11.69976,-66.25197 z"
               style="display:inline;fill:#000000;fill-opacity:1;stroke:#000000;stroke-width:1.11688936;stroke-miterlimit:4;stroke-opacity:1"
               inkscape:connector-curvature="0" />
          </g>
          <path
             style="fill:#000000;fill-rule:evenodd;stroke:#000000;stroke-width:0.09908108px;stroke-linecap:butt;stroke-linejoin:miter;stroke-opacity:1"
             d="m -464.37935,574.01247 c 0,0 -2.57628,3.84531 -3.39601,5.4933 -0.81974,1.64799 -3.39603,7.07263 -3.39603,7.07263 0,0 23.12808,-1.64798 27.10961,-1.51065 3.98156,0.13732 16.6719,-0.0373 25.64583,0.75534 0.17758,0.0157 -1.88638,-4.60212 -3.45313,-7.4643 -1.56675,-2.86216 -2.63629,-3.96865 -3.28036,-4.89566 -1.28814,-1.85399 -33.37469,-0.96131 -39.22991,0.54934 z"
             id="path16606"
             sodipodi:nodetypes="cscssssc"
             inkscape:connector-curvature="0" />
          <path
             style="fill:#1a1a1a;fill-opacity:1;fill-rule:evenodd;stroke:none;stroke-width:0.91881609px;stroke-linecap:butt;stroke-linejoin:miter;stroke-opacity:1"
             d="m -502.05158,627.84005 0,-40.28307 11.36744,0 0,40.92248"
             id="path6174"
             inkscape:connector-curvature="0"
             sodipodi:nodetypes="cccc" />
        </g>
      </g>
    </g>
    <path
       style="fill:#1a1a1a;fill-rule:evenodd;stroke:none;stroke-width:1px;stroke-linecap:butt;stroke-linejoin:miter;stroke-opacity:1"
       d="m -27.972033,-32.95454 216.071423,0 -10.4763,-18.14549 -199.166552,0 z"
       id="path33712"
       inkscape:connector-curvature="0" />
  </g>
</svg>
