<?xml version="1.0" encoding="UTF-8" standalone="no"?>
<!-- Created with Inkscape (http://www.inkscape.org/) -->

<svg
   xmlns:dc="http://purl.org/dc/elements/1.1/"
   xmlns:cc="http://creativecommons.org/ns#"
   xmlns:rdf="http://www.w3.org/1999/02/22-rdf-syntax-ns#"
   xmlns:svg="http://www.w3.org/2000/svg"
   xmlns="http://www.w3.org/2000/svg"
   xmlns:sodipodi="http://sodipodi.sourceforge.net/DTD/sodipodi-0.dtd"
   xmlns:inkscape="http://www.inkscape.org/namespaces/inkscape"
   width="279.73526mm"
   height="161.19592mm"
   viewBox="0 0 991.18793 571.16665"
   id="svg5427"
   version="1.1"
   inkscape:version="0.91 r13725"
   sodipodi:docname="hudson-yards.svg">
  <defs
     id="defs5429" />
  <sodipodi:namedview
     id="base"
     pagecolor="#ffffff"
     bordercolor="#666666"
     borderopacity="1.0"
     inkscape:pageopacity="0.0"
     inkscape:pageshadow="2"
     inkscape:zoom="0.9899495"
     inkscape:cx="601.43107"
     inkscape:cy="265.90428"
     inkscape:document-units="px"
     inkscape:current-layer="layer1"
     showgrid="false"
     fit-margin-top="0"
     fit-margin-left="0"
     fit-margin-right="0"
     fit-margin-bottom="0"
     inkscape:window-width="1920"
     inkscape:window-height="1018"
     inkscape:window-x="1912"
     inkscape:window-y="-8"
     inkscape:window-maximized="1" />
  <metadata
     id="metadata5432">
    <rdf:RDF>
      <cc:Work
         rdf:about="">
        <dc:format>image/svg+xml</dc:format>
        <dc:type
           rdf:resource="http://purl.org/dc/dcmitype/StillImage" />
        <dc:title />
      </cc:Work>
    </rdf:RDF>
  </metadata>
  <g
     inkscape:label="Layer 1"
     inkscape:groupmode="layer"
     id="layer1"
     transform="translate(44.014002,507.21379)">
    <path
       style="fill:none;fill-rule:evenodd;stroke:#1a1a1a;stroke-width:32;stroke-linecap:butt;stroke-linejoin:miter;stroke-opacity:1;stroke-miterlimit:4;stroke-dasharray:none"
       d="m 28.348133,-228.60726 c 4.501235,-19.84284 18.487626,-47.26223 35.553127,-66.65187 17.065502,-19.38962 86.74963,-101.79555 130.12445,-124.82073 43.37481,-23.02519 123.01381,-60.59258 140.79039,-64.22815 17.77655,-3.63556 100.25982,-14.54222 133.67976,-12.11853 33.41994,2.42371 93.86026,12.11853 144.3457,36.35556 50.48545,24.23705 139.36827,67.8637 175.63245,109.06667 36.2642,41.20296 48.35366,60.28784 58.47227,80.75302 10.1186,20.46516 20.45569,50.12699 17.61143,69.51661 -2.84426,19.38963 -24.97346,60.37207 -36.35047,72.49058 -11.37699,12.11852 -92.35185,65.660538 -107.99523,74.1435 -15.64338,8.482964 -149.32315,37.567407 -165.67758,38.77926 -16.35443,1.211852 -115.19214,6.0592598 -139.36826,4.847407 -24.17612,-1.211852 -110.21471,-8.482963 -133.67976,-12.118518 -23.46505,-3.635555 -155.72271,-53.321483 -167.09971,-60.592593 -11.377,-7.271111 -50.022605,-34.415076 -67.728706,-57.562966 -17.706101,-23.14789 -21.509643,-34.63876 -21.509643,-49.38295 0,-14.74421 -1.301455,-18.63346 3.199782,-38.4763 z"
       id="path5446"
       inkscape:connector-curvature="0"
       sodipodi:nodetypes="zzzzzzzzzzzzzzzzzz" />
    <path
       style="fill:none;fill-rule:evenodd;stroke:#1a1a1a;stroke-width:32;stroke-linecap:butt;stroke-linejoin:miter;stroke-miterlimit:4;stroke-dasharray:none;stroke-opacity:1"
       d="m 25.119121,-191.41715 c 0,0 -8.674746,38.26063 -21.1010218,101.380697 -12.4262756,63.120068 -38.4320762,146.715901 -38.4320762,146.715901 0,0 72.151393,-73.694144 80.196148,-80.977869 8.044754,-7.283723 67.123419,-58.698242 67.123419,-58.698242"
       id="path5448"
       inkscape:connector-curvature="0"
       sodipodi:nodetypes="czcsc" />
    <path
       sodipodi:nodetypes="cscsc"
       inkscape:connector-curvature="0"
       id="path5450"
       d="m 862.94479,-203.53566 c 0,0 21.69379,53.08374 38.56162,113.298335 14.75361,52.667256 34.28509,136.952529 33.20854,135.46788 -19.43628,-19.798897 -56.7672,-58.318682 -69.32368,-75.986665 -28.53108,-40.145536 -67.12341,-78.90129 -67.12341,-78.90129"
       style="fill:none;fill-rule:evenodd;stroke:#1a1a1a;stroke-width:32;stroke-linecap:butt;stroke-linejoin:miter;stroke-miterlimit:4;stroke-dasharray:none;stroke-opacity:1" />
    <path
       style="fill:none;fill-rule:evenodd;stroke:#1a1a1a;stroke-width:18.16632271;stroke-linecap:butt;stroke-linejoin:miter;stroke-opacity:1"
       d="m 35.246222,-247.22293 c 0,0 91.499978,-67.44556 109.600658,-82.01301 18.10071,-14.56745 109.59612,-59.67711 132.22199,-67.38929 22.62587,-7.71219 93.52027,-28.278 112.12377,-30.84871 18.60349,-2.57073 60.33565,-10.28292 104.58179,-5.14145 44.24616,5.14145 135.75525,33.41943 169.44266,48.8438 33.6874,15.42435 93.52027,41.98851 115.14055,58.26977 21.62028,16.28126 60.35324,37.70399 60.35324,37.70399"
       id="path5462"
       inkscape:connector-curvature="0"
       sodipodi:nodetypes="cssssssc" />
    <path
       style="fill:none;fill-rule:evenodd;stroke:#1a1a1a;stroke-width:18.16632271;stroke-linecap:butt;stroke-linejoin:miter;stroke-opacity:1"
       d="m 62.374478,-130.12664 c 0,0 25.642655,-33.41944 42.234962,-49.7007 16.59231,-16.28127 77.43077,-77.12179 109.10698,-93.40306 31.67623,-16.28125 87.48671,-47.12997 110.61538,-53.12831 23.12867,-5.99838 78.93916,-18.852 101.06223,-19.70891 22.12308,-0.8569 50.27972,-4.28454 76.92796,0 26.64825,4.28454 98.04544,25.70725 129.72168,37.70398 31.67622,11.99672 137.76642,83.12014 157.8783,99.4014 20.11189,16.28126 56.81608,51.41452 56.81608,51.41452"
       id="path5466"
       inkscape:connector-curvature="0" />
    <path
       style="fill:none;fill-rule:evenodd;stroke:#1a1a1a;stroke-width:10.39672852;stroke-linecap:butt;stroke-linejoin:miter;stroke-opacity:1"
       d="m 122.20734,-82.996663 c 0,0 -19.10629,7.712179 24.13426,-35.990167 43.24056,-43.70234 84.46992,-78.8356 146.81677,-110.54122 62.34685,-31.70562 74.41398,-41.98852 136.25803,-45.41615 61.84405,-3.42764 121.67692,5.99837 177.48741,30.84871 55.81047,24.85035 139.2748,82.26323 162.40347,104.54285 23.12868,22.27963 28.65945,36.84708 28.65945,36.84708"
       id="path5470"
       inkscape:connector-curvature="0" />
    <path
       style="fill:none;fill-rule:evenodd;stroke:#1a1a1a;stroke-width:18.16632271;stroke-linecap:butt;stroke-linejoin:miter;stroke-opacity:1"
       d="m 202.91399,-46.223563 c 0,0 6.04403,-31.508149 33.06441,-53.321483 27.02039,-21.813334 100.97088,-70.287404 124.79148,-75.740744 23.82059,-5.45333 104.88173,-23.02518 146.12336,-15.14814 41.24163,7.87704 103.45961,28.47852 139.72379,50.29185 36.26419,21.81333 88.17176,70.287404 88.17176,70.287404"
       id="path5474"
       inkscape:connector-curvature="0" />
    <path
       style="fill:none;fill-rule:evenodd;stroke:#1a1a1a;stroke-width:18.16632271;stroke-linecap:butt;stroke-linejoin:miter;stroke-opacity:1"
       d="m 241.31137,-34.710971 c 0,0 33.06441,-41.202963 62.21797,-59.986667 29.15357,-18.783702 45.15249,-33.931852 83.54986,-41.202962 38.39737,-7.27111 89.23835,-16.36 124.79148,-7.87704 35.55312,8.48297 99.54876,28.47852 130.83552,47.262225 31.28674,18.783703 58.66265,43.626667 58.66265,43.626667"
       id="path5476"
       inkscape:connector-curvature="0" />
    <path
       style="fill:none;fill-rule:evenodd;stroke:#1a1a1a;stroke-width:18.16632271;stroke-linecap:butt;stroke-linejoin:miter;stroke-opacity:1"
       d="m 336.59375,-20.774674 c 1.77765,0 18.1321,-15.148148 50.12992,-22.419259 31.99781,-7.271112 98.12663,-17.571853 126.2136,-11.512593 28.08697,6.05926 84.97198,29.084444 84.97198,29.084444"
       id="path5480"
       inkscape:connector-curvature="0" />
    <path
       style="fill:none;fill-rule:evenodd;stroke:#1a1a1a;stroke-width:16;stroke-linecap:butt;stroke-linejoin:miter;stroke-opacity:1"
       d="m 31.192382,-224.97171 c 0,0 75.017108,47.26222 95.993448,70.2874 20.97634,23.02519 36.97525,45.44445 54.04075,72.711117 17.06551,27.266667 23.17728,39.420932 23.17728,39.420932"
       id="path5494"
       inkscape:connector-curvature="0"
       sodipodi:nodetypes="cssc" />
    <path
       style="fill:none;fill-rule:evenodd;stroke:#1a1a1a;stroke-width:16;stroke-linecap:butt;stroke-linejoin:miter;stroke-opacity:1"
       d="m 119.00861,-352.21617 c 0,0 76.79475,75.13483 97.41557,108.46075 20.62082,33.32593 51.90757,95.73631 58.66266,118.15556 6.7551,22.41926 32.64462,109.758698 32.64462,109.758698"
       id="path5498"
       inkscape:connector-curvature="0"
       sodipodi:nodetypes="cssc" />
    <path
       style="fill:none;fill-rule:evenodd;stroke:#1a1a1a;stroke-width:16;stroke-linecap:butt;stroke-linejoin:miter;stroke-opacity:1"
       d="m 244.86668,-441.89319 c 0,0 65.06222,119.3674 75.37264,144.81628 10.3104,25.44889 33.41994,96.94815 36.97524,115.73186 3.55532,18.78371 26.30933,129.668153 27.37591,145.422228 1.06659,15.754074 3.61412,25.536208 3.61412,25.536208"
       id="path5502"
       inkscape:connector-curvature="0"
       sodipodi:nodetypes="csssc" />
    <path
       style="fill:none;fill-rule:evenodd;stroke:#1a1a1a;stroke-width:16;stroke-linecap:butt;stroke-linejoin:miter;stroke-opacity:1"
       d="m 391.7011,-486.73171 c 0,0 32.35335,126.63853 38.75291,164.20592 6.39956,37.56741 22.04294,143.60445 23.82061,161.78222 1.77764,18.17778 9.59933,113.914081 10.3104,133.909637 0.71105,19.9955557 2.07438,19.1979456 2.07438,19.1979456"
       id="path5506"
       inkscape:connector-curvature="0"
       sodipodi:nodetypes="csssc" />
    <path
       style="fill:none;fill-rule:evenodd;stroke:#1a1a1a;stroke-width:16;stroke-linecap:butt;stroke-linejoin:miter;stroke-opacity:1"
       d="m 553.11231,-476.43097 c 0,0 -6.04404,156.32888 -6.7551,175.11259 -0.71106,18.78371 -1.77765,98.16 -1.77765,117.54963 0,19.38963 0.85942,168.860435 0.85942,168.860435"
       id="path5510"
       inkscape:connector-curvature="0"
       sodipodi:nodetypes="cssc" />
    <path
       style="fill:none;fill-rule:evenodd;stroke:#1a1a1a;stroke-width:16;stroke-linecap:butt;stroke-linejoin:miter;stroke-opacity:1"
       d="m 709.19053,-402.508 c 0,0 -45.50799,133.90962 -53.32968,164.20591 -7.82169,30.29631 -13.51019,68.46964 -17.42103,97.55408 -3.91085,29.08445 -12.02654,117.681221 -12.02654,117.681221"
       id="path5514"
       inkscape:connector-curvature="0"
       sodipodi:nodetypes="cssc" />
    <path
       style="fill:none;fill-rule:evenodd;stroke:#1a1a1a;stroke-width:16;stroke-linecap:butt;stroke-linejoin:miter;stroke-opacity:1"
       d="m 841.09264,-272.23394 c 0,0 -57.24054,70.28742 -70.03965,93.3126 -12.79913,23.02519 -26.66485,51.5037 -31.64229,69.68148 -4.97743,18.177778 -20.70219,56.152125 -20.70219,56.152125"
       id="path5518"
       inkscape:connector-curvature="0"
       sodipodi:nodetypes="cssc" />
    <rect
       style="opacity:1;fill:#00485d;fill-opacity:1;stroke:none;stroke-width:8.3253994;stroke-opacity:1"
       id="rect5520"
       width="660.4696"
       height="73.345032"
       x="108.73476"
       y="-151.96437" />
  </g>
</svg>
